<svg width="37" height="36" viewBox="0 0 37 36" fill="none" xmlns="http://www.w3.org/2000/svg">
<path fill-rule="evenodd" clip-rule="evenodd" d="M9.11012 21.9721C12.3025 24.2518 15.6185 25.4568 18.6996 25.4568C21.7807 25.4568 25.0967 24.2518 28.2891 21.9721C30.6756 20.2679 32.1485 18.5794 32.2101 18.5084C32.4622 18.2172 32.4622 17.785 32.2101 17.4939C32.1485 17.4228 30.6755 15.7344 28.2891 14.0302C25.0967 11.7506 21.7807 10.5455 18.6996 10.5455C15.6186 10.5455 12.3026 11.7506 9.11012 14.0302C6.72357 15.7344 5.25066 17.4228 5.18911 17.4939C4.93696 17.7851 4.93696 18.2172 5.18911 18.5084C5.25066 18.5795 6.72364 20.2679 9.11012 21.9721ZM10.0412 20.7329C8.55688 19.6767 7.43268 18.6086 6.83702 18.0012C7.43281 17.3937 8.55706 16.3256 10.0412 15.2696C12.0761 13.8215 15.2301 12.0953 18.6995 12.0953C22.169 12.0953 25.323 13.8215 27.3579 15.2696C28.8422 16.3258 29.9665 17.3939 30.5621 18.0012C29.9663 18.6087 28.842 19.6768 27.3579 20.7329C25.323 22.1809 22.169 23.9072 18.6995 23.9072C15.2301 23.9072 12.0761 22.1809 10.0412 20.7329Z" fill="#486082"/>
<circle cx="18.8461" cy="17.9999" r="4.61538" fill="#486082"/>
<path d="M22.7034 18.2145C21.849 18.2145 21.1538 17.5194 21.1538 16.6649C21.1538 15.8105 21.849 15.1154 22.7034 15.1154C23.5579 15.1154 24.253 15.8105 24.253 16.6649C24.253 17.5194 23.5579 18.2145 22.7034 18.2145Z" fill="white"/>
</svg>
