<svg width="37" height="37" viewBox="0 0 37 37" fill="none" xmlns="http://www.w3.org/2000/svg">
<path fill-rule="evenodd" clip-rule="evenodd" d="M19.175 19.175V10.535H16.34V19.175H19.175ZM19.175 24.98V22.0775H16.34V24.98H19.175ZM7.56501 7.63244C10.4 4.79743 13.7975 3.37994 17.7575 3.37994C21.7175 3.37994 25.1037 4.78618 27.9163 7.59869C30.7288 10.4112 32.135 13.7974 32.135 17.7574C32.135 21.7175 30.7288 25.1037 27.9163 27.9162C25.1037 30.7287 21.7175 32.1349 17.7575 32.1349C13.7975 32.1349 10.4113 30.7287 7.59876 27.9162C4.78624 25.1037 3.38 21.7175 3.38 17.7574C3.38 13.7974 4.77499 10.4225 7.56501 7.63244Z" fill="black" fill-opacity="0.25"/>
<mask id="mask0_3331_16" style="mask-type:luminance" maskUnits="userSpaceOnUse" x="3" y="3" width="30" height="30">
<path fill-rule="evenodd" clip-rule="evenodd" d="M19.175 19.175V10.535H16.34V19.175H19.175ZM19.175 24.98V22.0775H16.34V24.98H19.175ZM7.56501 7.63244C10.4 4.79743 13.7975 3.37994 17.7575 3.37994C21.7175 3.37994 25.1037 4.78618 27.9163 7.59869C30.7288 10.4112 32.135 13.7974 32.135 17.7574C32.135 21.7175 30.7288 25.1037 27.9163 27.9162C25.1037 30.7287 21.7175 32.1349 17.7575 32.1349C13.7975 32.1349 10.4113 30.7287 7.59876 27.9162C4.78624 25.1037 3.38 21.7175 3.38 17.7574C3.38 13.7974 4.77499 10.4225 7.56501 7.63244Z" fill="white"/>
</mask>
<g mask="url(#mask0_3331_16)">
</g>
</svg>
